<svg aria-roledescription="er" role="graphics-document document" viewBox="0 0 633.715576171875 458.03125" height="458.03125" xmlns="http://www.w3.org/2000/svg" width="633.715576171875" id="tmpMermaidElement1318"><style>svg {background: white;}#tmpMermaidElement1318{font-family:"trebuchet ms",verdana,arial,sans-serif;font-size:16px;fill:#333;}#tmpMermaidElement1318 .error-icon{fill:#552222;}#tmpMermaidElement1318 .error-text{fill:#552222;stroke:#552222;}#tmpMermaidElement1318 .edge-thickness-normal{stroke-width:2px;}#tmpMermaidElement1318 .edge-thickness-thick{stroke-width:3.5px;}#tmpMermaidElement1318 .edge-pattern-solid{stroke-dasharray:0;}#tmpMermaidElement1318 .edge-pattern-dashed{stroke-dasharray:3;}#tmpMermaidElement1318 .edge-pattern-dotted{stroke-dasharray:2;}#tmpMermaidElement1318 .marker{fill:#333333;stroke:#333333;}#tmpMermaidElement1318 .marker.cross{stroke:#333333;}#tmpMermaidElement1318 svg{font-family:"trebuchet ms",verdana,arial,sans-serif;font-size:16px;}#tmpMermaidElement1318 .entityBox{fill:#ECECFF;stroke:#9370DB;}#tmpMermaidElement1318 .attributeBoxOdd{fill:#ffffff;stroke:#9370DB;}#tmpMermaidElement1318 .attributeBoxEven{fill:#f2f2f2;stroke:#9370DB;}#tmpMermaidElement1318 .relationshipLabelBox{fill:hsl(80, 100%, 96.2745098039%);opacity:0.7;background-color:hsl(80, 100%, 96.2745098039%);}#tmpMermaidElement1318 .relationshipLabelBox rect{opacity:0.5;}#tmpMermaidElement1318 .relationshipLine{stroke:#333333;}#tmpMermaidElement1318 .entityTitleText{text-anchor:middle;font-size:18px;fill:#333;}#tmpMermaidElement1318 #MD_PARENT_START{fill:#f5f5f5!important;stroke:#333333!important;stroke-width:1;}#tmpMermaidElement1318 #MD_PARENT_END{fill:#f5f5f5!important;stroke:#333333!important;stroke-width:1;}#tmpMermaidElement1318 :root{--mermaid-font-family:"trebuchet ms",verdana,arial,sans-serif;}</style><g></g><defs><marker orient="auto" markerHeight="240" markerWidth="190" refY="7" refX="0" id="MD_PARENT_START"><path d="M 18,7 L9,13 L1,7 L9,1 Z"></path></marker></defs><defs><marker orient="auto" markerHeight="28" markerWidth="20" refY="7" refX="19" id="MD_PARENT_END"><path d="M 18,7 L9,13 L1,7 L9,1 Z"></path></marker></defs><defs><marker orient="auto" markerHeight="18" markerWidth="18" refY="9" refX="0" id="ONLY_ONE_START"><path d="M9,0 L9,18 M15,0 L15,18" fill="none" stroke="gray"></path></marker></defs><defs><marker orient="auto" markerHeight="18" markerWidth="18" refY="9" refX="18" id="ONLY_ONE_END"><path d="M3,0 L3,18 M9,0 L9,18" fill="none" stroke="gray"></path></marker></defs><defs><marker orient="auto" markerHeight="18" markerWidth="30" refY="9" refX="0" id="ZERO_OR_ONE_START"><circle r="6" cy="9" cx="21" fill="white" stroke="gray"></circle><path d="M9,0 L9,18" fill="none" stroke="gray"></path></marker></defs><defs><marker orient="auto" markerHeight="18" markerWidth="30" refY="9" refX="30" id="ZERO_OR_ONE_END"><circle r="6" cy="9" cx="9" fill="white" stroke="gray"></circle><path d="M21,0 L21,18" fill="none" stroke="gray"></path></marker></defs><defs><marker orient="auto" markerHeight="36" markerWidth="45" refY="18" refX="18" id="ONE_OR_MORE_START"><path d="M0,18 Q 18,0 36,18 Q 18,36 0,18 M42,9 L42,27" fill="none" stroke="gray"></path></marker></defs><defs><marker orient="auto" markerHeight="36" markerWidth="45" refY="18" refX="27" id="ONE_OR_MORE_END"><path d="M3,9 L3,27 M9,18 Q27,0 45,18 Q27,36 9,18" fill="none" stroke="gray"></path></marker></defs><defs><marker orient="auto" markerHeight="36" markerWidth="57" refY="18" refX="18" id="ZERO_OR_MORE_START"><circle r="6" cy="18" cx="48" fill="white" stroke="gray"></circle><path d="M0,18 Q18,0 36,18 Q18,36 0,18" fill="none" stroke="gray"></path></marker></defs><defs><marker orient="auto" markerHeight="36" markerWidth="57" refY="18" refX="39" id="ZERO_OR_MORE_END"><circle r="6" cy="18" cx="9" fill="white" stroke="gray"></circle><path d="M21,18 Q39,0 57,18 Q39,36 21,18" fill="none" stroke="gray"></path></marker></defs><path style="stroke: gray; fill: none;" marker-start="url(#ONLY_ONE_START)" marker-end="url(#ZERO_OR_MORE_END)" d="M231.357,130.58L206.067,144.986C180.777,159.392,130.198,188.204,104.909,212.943C79.619,237.682,79.619,258.349,79.619,268.682L79.619,279.016" class="er relationshipLine"></path><path style="stroke: gray; fill: none;" marker-start="url(#ONLY_ONE_START)" marker-end="url(#ZERO_OR_MORE_END)" d="M296.436,167.016L296.436,175.349C296.436,183.682,296.436,200.349,296.436,219.016C296.436,237.682,296.436,258.349,296.436,268.682L296.436,279.016" class="er relationshipLine"></path><path style="stroke: gray; fill: none;" marker-start="url(#ONLY_ONE_START)" marker-end="url(#ZERO_OR_MORE_END)" d="M361.515,127.388L390.208,142.326C418.901,157.264,476.288,187.14,504.981,210.411C533.674,233.682,533.674,250.349,533.674,258.682L533.674,267.016" class="er relationshipLine"></path><g transform="translate(231.3565216064453,20 )" id="entity-USER-6e7e2962-0c6f-577d-a7fd-2ce3a0cfd2c8"><rect height="147.015625" width="130.15841674804688" y="0" x="0" class="er entityBox"></rect><text style="dominant-baseline: middle; text-anchor: middle; font-size: 12px;" transform="translate(65.07920837402344,13.5078125)" y="0" x="0" id="text-entity-USER-6e7e2962-0c6f-577d-a7fd-2ce3a0cfd2c8" class="er entityLabel">USER</text><rect height="24" width="48.703125" y="27.015625" x="0" class="er attributeBoxOdd"></rect><text style="dominant-baseline: middle; font-size: 10.2px;" transform="translate(5,39.015625)" y="0" x="0" id="text-entity-USER-6e7e2962-0c6f-577d-a7fd-2ce3a0cfd2c8-attr-1-type" class="er entityLabel">int</text><rect height="24" width="58.326873779296875" y="27.015625" x="48.703125" class="er attributeBoxOdd"></rect><text style="dominant-baseline: middle; font-size: 10.2px;" transform="translate(53.703125,39.015625)" y="0" x="0" id="text-entity-USER-6e7e2962-0c6f-577d-a7fd-2ce3a0cfd2c8-attr-1-name" class="er entityLabel">userid</text><rect height="24" width="23.12841796875" y="27.015625" x="107.02999877929688" class="er attributeBoxOdd"></rect><text style="dominant-baseline: middle; font-size: 10.2px;" transform="translate(112.02999877929688,39.015625)" y="0" x="0" id="text-entity-USER-6e7e2962-0c6f-577d-a7fd-2ce3a0cfd2c8-attr-1-key" class="er entityLabel">PK</text><rect height="24" width="48.703125" y="51.015625" x="0" class="er attributeBoxEven"></rect><text style="dominant-baseline: middle; font-size: 10.2px;" transform="translate(5,63.015625)" y="0" x="0" id="text-entity-USER-6e7e2962-0c6f-577d-a7fd-2ce3a0cfd2c8-attr-2-type" class="er entityLabel">string</text><rect height="24" width="58.326873779296875" y="51.015625" x="48.703125" class="er attributeBoxEven"></rect><text style="dominant-baseline: middle; font-size: 10.2px;" transform="translate(53.703125,63.015625)" y="0" x="0" id="text-entity-USER-6e7e2962-0c6f-577d-a7fd-2ce3a0cfd2c8-attr-2-name" class="er entityLabel">username</text><rect height="24" width="23.12841796875" y="51.015625" x="107.02999877929688" class="er attributeBoxEven"></rect><text style="dominant-baseline: middle; font-size: 10.2px;" transform="translate(112.02999877929688,63.015625)" y="0" x="0" id="text-entity-USER-6e7e2962-0c6f-577d-a7fd-2ce3a0cfd2c8-attr-2-key" class="er entityLabel"></text><rect height="24" width="48.703125" y="75.015625" x="0" class="er attributeBoxOdd"></rect><text style="dominant-baseline: middle; font-size: 10.2px;" transform="translate(5,87.015625)" y="0" x="0" id="text-entity-USER-6e7e2962-0c6f-577d-a7fd-2ce3a0cfd2c8-attr-3-type" class="er entityLabel">string</text><rect height="24" width="58.326873779296875" y="75.015625" x="48.703125" class="er attributeBoxOdd"></rect><text style="dominant-baseline: middle; font-size: 10.2px;" transform="translate(53.703125,87.015625)" y="0" x="0" id="text-entity-USER-6e7e2962-0c6f-577d-a7fd-2ce3a0cfd2c8-attr-3-name" class="er entityLabel">password</text><rect height="24" width="23.12841796875" y="75.015625" x="107.02999877929688" class="er attributeBoxOdd"></rect><text style="dominant-baseline: middle; font-size: 10.2px;" transform="translate(112.02999877929688,87.015625)" y="0" x="0" id="text-entity-USER-6e7e2962-0c6f-577d-a7fd-2ce3a0cfd2c8-attr-3-key" class="er entityLabel"></text><rect height="24" width="48.703125" y="99.015625" x="0" class="er attributeBoxEven"></rect><text style="dominant-baseline: middle; font-size: 10.2px;" transform="translate(5,111.015625)" y="0" x="0" id="text-entity-USER-6e7e2962-0c6f-577d-a7fd-2ce3a0cfd2c8-attr-4-type" class="er entityLabel">string</text><rect height="24" width="58.326873779296875" y="99.015625" x="48.703125" class="er attributeBoxEven"></rect><text style="dominant-baseline: middle; font-size: 10.2px;" transform="translate(53.703125,111.015625)" y="0" x="0" id="text-entity-USER-6e7e2962-0c6f-577d-a7fd-2ce3a0cfd2c8-attr-4-name" class="er entityLabel">salt</text><rect height="24" width="23.12841796875" y="99.015625" x="107.02999877929688" class="er attributeBoxEven"></rect><text style="dominant-baseline: middle; font-size: 10.2px;" transform="translate(112.02999877929688,111.015625)" y="0" x="0" id="text-entity-USER-6e7e2962-0c6f-577d-a7fd-2ce3a0cfd2c8-attr-4-key" class="er entityLabel"></text><rect height="24" width="48.703125" y="123.015625" x="0" class="er attributeBoxOdd"></rect><text style="dominant-baseline: middle; font-size: 10.2px;" transform="translate(5,135.015625)" y="0" x="0" id="text-entity-USER-6e7e2962-0c6f-577d-a7fd-2ce3a0cfd2c8-attr-5-type" class="er entityLabel">boolean</text><rect height="24" width="58.326873779296875" y="123.015625" x="48.703125" class="er attributeBoxOdd"></rect><text style="dominant-baseline: middle; font-size: 10.2px;" transform="translate(53.703125,135.015625)" y="0" x="0" id="text-entity-USER-6e7e2962-0c6f-577d-a7fd-2ce3a0cfd2c8-attr-5-name" class="er entityLabel">is_admin</text><rect height="24" width="23.12841796875" y="123.015625" x="107.02999877929688" class="er attributeBoxOdd"></rect><text style="dominant-baseline: middle; font-size: 10.2px;" transform="translate(112.02999877929688,135.015625)" y="0" x="0" id="text-entity-USER-6e7e2962-0c6f-577d-a7fd-2ce3a0cfd2c8-attr-5-key" class="er entityLabel"></text></g><g transform="translate(20,279.015625 )" id="entity-EXPENSE-67c55ea0-ed5f-5724-9189-022f58969587"><rect height="147.015625" width="119.2384033203125" y="0" x="0" class="er entityBox"></rect><text style="dominant-baseline: middle; text-anchor: middle; font-size: 12px;" transform="translate(59.61920166015625,13.5078125)" y="0" x="0" id="text-entity-EXPENSE-67c55ea0-ed5f-5724-9189-022f58969587" class="er entityLabel">EXPENSE</text><rect height="24" width="37.4693603515625" y="27.015625" x="0" class="er attributeBoxOdd"></rect><text style="dominant-baseline: middle; font-size: 10.2px;" transform="translate(5,39.015625)" y="0" x="0" id="text-entity-EXPENSE-67c55ea0-ed5f-5724-9189-022f58969587-attr-1-type" class="er entityLabel">int</text><rect height="24" width="58.640625" y="27.015625" x="37.4693603515625" class="er attributeBoxOdd"></rect><text style="dominant-baseline: middle; font-size: 10.2px;" transform="translate(42.4693603515625,39.015625)" y="0" x="0" id="text-entity-EXPENSE-67c55ea0-ed5f-5724-9189-022f58969587-attr-1-name" class="er entityLabel">expenseid</text><rect height="24" width="23.12841796875" y="27.015625" x="96.1099853515625" class="er attributeBoxOdd"></rect><text style="dominant-baseline: middle; font-size: 10.2px;" transform="translate(101.1099853515625,39.015625)" y="0" x="0" id="text-entity-EXPENSE-67c55ea0-ed5f-5724-9189-022f58969587-attr-1-key" class="er entityLabel">PK</text><rect height="24" width="37.4693603515625" y="51.015625" x="0" class="er attributeBoxEven"></rect><text style="dominant-baseline: middle; font-size: 10.2px;" transform="translate(5,63.015625)" y="0" x="0" id="text-entity-EXPENSE-67c55ea0-ed5f-5724-9189-022f58969587-attr-2-type" class="er entityLabel">int</text><rect height="24" width="58.640625" y="51.015625" x="37.4693603515625" class="er attributeBoxEven"></rect><text style="dominant-baseline: middle; font-size: 10.2px;" transform="translate(42.4693603515625,63.015625)" y="0" x="0" id="text-entity-EXPENSE-67c55ea0-ed5f-5724-9189-022f58969587-attr-2-name" class="er entityLabel">userid</text><rect height="24" width="23.12841796875" y="51.015625" x="96.1099853515625" class="er attributeBoxEven"></rect><text style="dominant-baseline: middle; font-size: 10.2px;" transform="translate(101.1099853515625,63.015625)" y="0" x="0" id="text-entity-EXPENSE-67c55ea0-ed5f-5724-9189-022f58969587-attr-2-key" class="er entityLabel">FK</text><rect height="24" width="37.4693603515625" y="75.015625" x="0" class="er attributeBoxOdd"></rect><text style="dominant-baseline: middle; font-size: 10.2px;" transform="translate(5,87.015625)" y="0" x="0" id="text-entity-EXPENSE-67c55ea0-ed5f-5724-9189-022f58969587-attr-3-type" class="er entityLabel">int</text><rect height="24" width="58.640625" y="75.015625" x="37.4693603515625" class="er attributeBoxOdd"></rect><text style="dominant-baseline: middle; font-size: 10.2px;" transform="translate(42.4693603515625,87.015625)" y="0" x="0" id="text-entity-EXPENSE-67c55ea0-ed5f-5724-9189-022f58969587-attr-3-name" class="er entityLabel">amount</text><rect height="24" width="23.12841796875" y="75.015625" x="96.1099853515625" class="er attributeBoxOdd"></rect><text style="dominant-baseline: middle; font-size: 10.2px;" transform="translate(101.1099853515625,87.015625)" y="0" x="0" id="text-entity-EXPENSE-67c55ea0-ed5f-5724-9189-022f58969587-attr-3-key" class="er entityLabel"></text><rect height="24" width="37.4693603515625" y="99.015625" x="0" class="er attributeBoxEven"></rect><text style="dominant-baseline: middle; font-size: 10.2px;" transform="translate(5,111.015625)" y="0" x="0" id="text-entity-EXPENSE-67c55ea0-ed5f-5724-9189-022f58969587-attr-4-type" class="er entityLabel">string</text><rect height="24" width="58.640625" y="99.015625" x="37.4693603515625" class="er attributeBoxEven"></rect><text style="dominant-baseline: middle; font-size: 10.2px;" transform="translate(42.4693603515625,111.015625)" y="0" x="0" id="text-entity-EXPENSE-67c55ea0-ed5f-5724-9189-022f58969587-attr-4-name" class="er entityLabel">category</text><rect height="24" width="23.12841796875" y="99.015625" x="96.1099853515625" class="er attributeBoxEven"></rect><text style="dominant-baseline: middle; font-size: 10.2px;" transform="translate(101.1099853515625,111.015625)" y="0" x="0" id="text-entity-EXPENSE-67c55ea0-ed5f-5724-9189-022f58969587-attr-4-key" class="er entityLabel"></text><rect height="24" width="37.4693603515625" y="123.015625" x="0" class="er attributeBoxOdd"></rect><text style="dominant-baseline: middle; font-size: 10.2px;" transform="translate(5,135.015625)" y="0" x="0" id="text-entity-EXPENSE-67c55ea0-ed5f-5724-9189-022f58969587-attr-5-type" class="er entityLabel">date</text><rect height="24" width="58.640625" y="123.015625" x="37.4693603515625" class="er attributeBoxOdd"></rect><text style="dominant-baseline: middle; font-size: 10.2px;" transform="translate(42.4693603515625,135.015625)" y="0" x="0" id="text-entity-EXPENSE-67c55ea0-ed5f-5724-9189-022f58969587-attr-5-name" class="er entityLabel">date</text><rect height="24" width="23.12841796875" y="123.015625" x="96.1099853515625" class="er attributeBoxOdd"></rect><text style="dominant-baseline: middle; font-size: 10.2px;" transform="translate(101.1099853515625,135.015625)" y="0" x="0" id="text-entity-EXPENSE-67c55ea0-ed5f-5724-9189-022f58969587-attr-5-key" class="er entityLabel"></text></g><g transform="translate(239.2384033203125,279.015625 )" id="entity-INCOME-3d84c98e-f8c0-5e4d-b46d-42c72abd0118"><rect height="147.015625" width="114.3946533203125" y="0" x="0" class="er entityBox"></rect><text style="dominant-baseline: middle; text-anchor: middle; font-size: 12px;" transform="translate(57.19732666015625,13.5078125)" y="0" x="0" id="text-entity-INCOME-3d84c98e-f8c0-5e4d-b46d-42c72abd0118" class="er entityLabel">INCOME</text><rect height="24" width="37.4693603515625" y="27.015625" x="0" class="er attributeBoxOdd"></rect><text style="dominant-baseline: middle; font-size: 10.2px;" transform="translate(5,39.015625)" y="0" x="0" id="text-entity-INCOME-3d84c98e-f8c0-5e4d-b46d-42c72abd0118-attr-1-type" class="er entityLabel">int</text><rect height="24" width="53.796875" y="27.015625" x="37.4693603515625" class="er attributeBoxOdd"></rect><text style="dominant-baseline: middle; font-size: 10.2px;" transform="translate(42.4693603515625,39.015625)" y="0" x="0" id="text-entity-INCOME-3d84c98e-f8c0-5e4d-b46d-42c72abd0118-attr-1-name" class="er entityLabel">incomeid</text><rect height="24" width="23.12841796875" y="27.015625" x="91.2662353515625" class="er attributeBoxOdd"></rect><text style="dominant-baseline: middle; font-size: 10.2px;" transform="translate(96.2662353515625,39.015625)" y="0" x="0" id="text-entity-INCOME-3d84c98e-f8c0-5e4d-b46d-42c72abd0118-attr-1-key" class="er entityLabel">PK</text><rect height="24" width="37.4693603515625" y="51.015625" x="0" class="er attributeBoxEven"></rect><text style="dominant-baseline: middle; font-size: 10.2px;" transform="translate(5,63.015625)" y="0" x="0" id="text-entity-INCOME-3d84c98e-f8c0-5e4d-b46d-42c72abd0118-attr-2-type" class="er entityLabel">int</text><rect height="24" width="53.796875" y="51.015625" x="37.4693603515625" class="er attributeBoxEven"></rect><text style="dominant-baseline: middle; font-size: 10.2px;" transform="translate(42.4693603515625,63.015625)" y="0" x="0" id="text-entity-INCOME-3d84c98e-f8c0-5e4d-b46d-42c72abd0118-attr-2-name" class="er entityLabel">userid</text><rect height="24" width="23.12841796875" y="51.015625" x="91.2662353515625" class="er attributeBoxEven"></rect><text style="dominant-baseline: middle; font-size: 10.2px;" transform="translate(96.2662353515625,63.015625)" y="0" x="0" id="text-entity-INCOME-3d84c98e-f8c0-5e4d-b46d-42c72abd0118-attr-2-key" class="er entityLabel">FK</text><rect height="24" width="37.4693603515625" y="75.015625" x="0" class="er attributeBoxOdd"></rect><text style="dominant-baseline: middle; font-size: 10.2px;" transform="translate(5,87.015625)" y="0" x="0" id="text-entity-INCOME-3d84c98e-f8c0-5e4d-b46d-42c72abd0118-attr-3-type" class="er entityLabel">int</text><rect height="24" width="53.796875" y="75.015625" x="37.4693603515625" class="er attributeBoxOdd"></rect><text style="dominant-baseline: middle; font-size: 10.2px;" transform="translate(42.4693603515625,87.015625)" y="0" x="0" id="text-entity-INCOME-3d84c98e-f8c0-5e4d-b46d-42c72abd0118-attr-3-name" class="er entityLabel">amount</text><rect height="24" width="23.12841796875" y="75.015625" x="91.2662353515625" class="er attributeBoxOdd"></rect><text style="dominant-baseline: middle; font-size: 10.2px;" transform="translate(96.2662353515625,87.015625)" y="0" x="0" id="text-entity-INCOME-3d84c98e-f8c0-5e4d-b46d-42c72abd0118-attr-3-key" class="er entityLabel"></text><rect height="24" width="37.4693603515625" y="99.015625" x="0" class="er attributeBoxEven"></rect><text style="dominant-baseline: middle; font-size: 10.2px;" transform="translate(5,111.015625)" y="0" x="0" id="text-entity-INCOME-3d84c98e-f8c0-5e4d-b46d-42c72abd0118-attr-4-type" class="er entityLabel">string</text><rect height="24" width="53.796875" y="99.015625" x="37.4693603515625" class="er attributeBoxEven"></rect><text style="dominant-baseline: middle; font-size: 10.2px;" transform="translate(42.4693603515625,111.015625)" y="0" x="0" id="text-entity-INCOME-3d84c98e-f8c0-5e4d-b46d-42c72abd0118-attr-4-name" class="er entityLabel">source</text><rect height="24" width="23.12841796875" y="99.015625" x="91.2662353515625" class="er attributeBoxEven"></rect><text style="dominant-baseline: middle; font-size: 10.2px;" transform="translate(96.2662353515625,111.015625)" y="0" x="0" id="text-entity-INCOME-3d84c98e-f8c0-5e4d-b46d-42c72abd0118-attr-4-key" class="er entityLabel"></text><rect height="24" width="37.4693603515625" y="123.015625" x="0" class="er attributeBoxOdd"></rect><text style="dominant-baseline: middle; font-size: 10.2px;" transform="translate(5,135.015625)" y="0" x="0" id="text-entity-INCOME-3d84c98e-f8c0-5e4d-b46d-42c72abd0118-attr-5-type" class="er entityLabel">date</text><rect height="24" width="53.796875" y="123.015625" x="37.4693603515625" class="er attributeBoxOdd"></rect><text style="dominant-baseline: middle; font-size: 10.2px;" transform="translate(42.4693603515625,135.015625)" y="0" x="0" id="text-entity-INCOME-3d84c98e-f8c0-5e4d-b46d-42c72abd0118-attr-5-name" class="er entityLabel">date</text><rect height="24" width="23.12841796875" y="123.015625" x="91.2662353515625" class="er attributeBoxOdd"></rect><text style="dominant-baseline: middle; font-size: 10.2px;" transform="translate(96.2662353515625,135.015625)" y="0" x="0" id="text-entity-INCOME-3d84c98e-f8c0-5e4d-b46d-42c72abd0118-attr-5-key" class="er entityLabel"></text></g><g transform="translate(453.633056640625,267.015625 )" id="entity-BUDGET-a371e242-30b7-58b8-83ed-e4a867f30b04"><rect height="171.015625" width="160.08255004882812" y="0" x="0" class="er entityBox"></rect><text style="dominant-baseline: middle; text-anchor: middle; font-size: 12px;" transform="translate(80.04127502441406,13.5078125)" y="0" x="0" id="text-entity-BUDGET-a371e242-30b7-58b8-83ed-e4a867f30b04" class="er entityLabel">BUDGET</text><rect height="24" width="37.4693603515625" y="27.015625" x="0" class="er attributeBoxOdd"></rect><text style="dominant-baseline: middle; font-size: 10.2px;" transform="translate(5,39.015625)" y="0" x="0" id="text-entity-BUDGET-a371e242-30b7-58b8-83ed-e4a867f30b04-attr-1-type" class="er entityLabel">int</text><rect height="24" width="99.48477172851562" y="27.015625" x="37.4693603515625" class="er attributeBoxOdd"></rect><text style="dominant-baseline: middle; font-size: 10.2px;" transform="translate(42.4693603515625,39.015625)" y="0" x="0" id="text-entity-BUDGET-a371e242-30b7-58b8-83ed-e4a867f30b04-attr-1-name" class="er entityLabel">budgetid</text><rect height="24" width="23.12841796875" y="27.015625" x="136.95413208007812" class="er attributeBoxOdd"></rect><text style="dominant-baseline: middle; font-size: 10.2px;" transform="translate(141.95413208007812,39.015625)" y="0" x="0" id="text-entity-BUDGET-a371e242-30b7-58b8-83ed-e4a867f30b04-attr-1-key" class="er entityLabel">PK</text><rect height="24" width="37.4693603515625" y="51.015625" x="0" class="er attributeBoxEven"></rect><text style="dominant-baseline: middle; font-size: 10.2px;" transform="translate(5,63.015625)" y="0" x="0" id="text-entity-BUDGET-a371e242-30b7-58b8-83ed-e4a867f30b04-attr-2-type" class="er entityLabel">int</text><rect height="24" width="99.48477172851562" y="51.015625" x="37.4693603515625" class="er attributeBoxEven"></rect><text style="dominant-baseline: middle; font-size: 10.2px;" transform="translate(42.4693603515625,63.015625)" y="0" x="0" id="text-entity-BUDGET-a371e242-30b7-58b8-83ed-e4a867f30b04-attr-2-name" class="er entityLabel">userid</text><rect height="24" width="23.12841796875" y="51.015625" x="136.95413208007812" class="er attributeBoxEven"></rect><text style="dominant-baseline: middle; font-size: 10.2px;" transform="translate(141.95413208007812,63.015625)" y="0" x="0" id="text-entity-BUDGET-a371e242-30b7-58b8-83ed-e4a867f30b04-attr-2-key" class="er entityLabel">FK</text><rect height="24" width="37.4693603515625" y="75.015625" x="0" class="er attributeBoxOdd"></rect><text style="dominant-baseline: middle; font-size: 10.2px;" transform="translate(5,87.015625)" y="0" x="0" id="text-entity-BUDGET-a371e242-30b7-58b8-83ed-e4a867f30b04-attr-3-type" class="er entityLabel">int</text><rect height="24" width="99.48477172851562" y="75.015625" x="37.4693603515625" class="er attributeBoxOdd"></rect><text style="dominant-baseline: middle; font-size: 10.2px;" transform="translate(42.4693603515625,87.015625)" y="0" x="0" id="text-entity-BUDGET-a371e242-30b7-58b8-83ed-e4a867f30b04-attr-3-name" class="er entityLabel">total_budget</text><rect height="24" width="23.12841796875" y="75.015625" x="136.95413208007812" class="er attributeBoxOdd"></rect><text style="dominant-baseline: middle; font-size: 10.2px;" transform="translate(141.95413208007812,87.015625)" y="0" x="0" id="text-entity-BUDGET-a371e242-30b7-58b8-83ed-e4a867f30b04-attr-3-key" class="er entityLabel"></text><rect height="24" width="37.4693603515625" y="99.015625" x="0" class="er attributeBoxEven"></rect><text style="dominant-baseline: middle; font-size: 10.2px;" transform="translate(5,111.015625)" y="0" x="0" id="text-entity-BUDGET-a371e242-30b7-58b8-83ed-e4a867f30b04-attr-4-type" class="er entityLabel">string</text><rect height="24" width="99.48477172851562" y="99.015625" x="37.4693603515625" class="er attributeBoxEven"></rect><text style="dominant-baseline: middle; font-size: 10.2px;" transform="translate(42.4693603515625,111.015625)" y="0" x="0" id="text-entity-BUDGET-a371e242-30b7-58b8-83ed-e4a867f30b04-attr-4-name" class="er entityLabel">time_frame</text><rect height="24" width="23.12841796875" y="99.015625" x="136.95413208007812" class="er attributeBoxEven"></rect><text style="dominant-baseline: middle; font-size: 10.2px;" transform="translate(141.95413208007812,111.015625)" y="0" x="0" id="text-entity-BUDGET-a371e242-30b7-58b8-83ed-e4a867f30b04-attr-4-key" class="er entityLabel"></text><rect height="24" width="37.4693603515625" y="123.015625" x="0" class="er attributeBoxOdd"></rect><text style="dominant-baseline: middle; font-size: 10.2px;" transform="translate(5,135.015625)" y="0" x="0" id="text-entity-BUDGET-a371e242-30b7-58b8-83ed-e4a867f30b04-attr-5-type" class="er entityLabel">date</text><rect height="24" width="99.48477172851562" y="123.015625" x="37.4693603515625" class="er attributeBoxOdd"></rect><text style="dominant-baseline: middle; font-size: 10.2px;" transform="translate(42.4693603515625,135.015625)" y="0" x="0" id="text-entity-BUDGET-a371e242-30b7-58b8-83ed-e4a867f30b04-attr-5-name" class="er entityLabel">creation_date</text><rect height="24" width="23.12841796875" y="123.015625" x="136.95413208007812" class="er attributeBoxOdd"></rect><text style="dominant-baseline: middle; font-size: 10.2px;" transform="translate(141.95413208007812,135.015625)" y="0" x="0" id="text-entity-BUDGET-a371e242-30b7-58b8-83ed-e4a867f30b04-attr-5-key" class="er entityLabel"></text><rect height="24" width="37.4693603515625" y="147.015625" x="0" class="er attributeBoxEven"></rect><text style="dominant-baseline: middle; font-size: 10.2px;" transform="translate(5,159.015625)" y="0" x="0" id="text-entity-BUDGET-a371e242-30b7-58b8-83ed-e4a867f30b04-attr-6-type" class="er entityLabel">date</text><rect height="24" width="99.48477172851562" y="147.015625" x="37.4693603515625" class="er attributeBoxEven"></rect><text style="dominant-baseline: middle; font-size: 10.2px;" transform="translate(42.4693603515625,159.015625)" y="0" x="0" id="text-entity-BUDGET-a371e242-30b7-58b8-83ed-e4a867f30b04-attr-6-name" class="er entityLabel">last_modified_date</text><rect height="24" width="23.12841796875" y="147.015625" x="136.95413208007812" class="er attributeBoxEven"></rect><text style="dominant-baseline: middle; font-size: 10.2px;" transform="translate(141.95413208007812,159.015625)" y="0" x="0" id="text-entity-BUDGET-a371e242-30b7-58b8-83ed-e4a867f30b04-attr-6-key" class="er entityLabel"></text></g><rect height="17.015625" width="20.02734375" y="180.11105346679688" x="125.18353271484375" class="er relationshipLabelBox"></rect><text style="text-anchor: middle; dominant-baseline: middle; font-size: 12px;" y="188.61886596679688" x="135.19720458984375" id="rel1" class="er relationshipLabel">has</text><rect height="17.015625" width="31.669921875" y="214.5081787109375" x="280.6010437011719" class="er relationshipLabelBox"></rect><text style="text-anchor: middle; dominant-baseline: middle; font-size: 12px;" y="223.0159912109375" x="296.4360046386719" id="rel2" class="er relationshipLabel">earns</text><rect height="17.015625" width="30.3984375" y="174.18722534179688" x="448.6137390136719" class="er relationshipLabelBox"></rect><text style="text-anchor: middle; dominant-baseline: middle; font-size: 12px;" y="182.69503784179688" x="463.8129577636719" id="rel3" class="er relationshipLabel">plans</text></svg>